<svg version="1.1" xmlns="http://www.w3.org/2000/svg" viewBox="0 0 1599.318649199139 1109.7937381440893" width="1599.318649199139" height="1109.7937381440893">
  <!-- svg-source:excalidraw -->
  
  <defs>
    <style class="style-fonts">
      @font-face {
        font-family: "Virgil";
        src: url("https://excalidraw.com/Virgil.woff2");
      }
      @font-face {
        font-family: "Cascadia";
        src: url("https://excalidraw.com/Cascadia.woff2");
      }
      @font-face {
        font-family: "Assistant";
        src: url("https://excalidraw.com/Assistant-Regular.woff2");
      }
    </style>
    
  </defs>
  <rect x="0" y="0" width="1599.318649199139" height="1109.7937381440893" fill="#f8f9fa"></rect><g stroke-linecap="round" transform="translate(407 595.2937381440893) rotate(0 53 53)"><path d="M26.5 0 C46.39 0, 66.27 0, 79.5 0 M26.5 0 C46.51 0, 66.53 0, 79.5 0 M79.5 0 C97.17 0, 106 8.83, 106 26.5 M79.5 0 C97.17 0, 106 8.83, 106 26.5 M106 26.5 C106 44.8, 106 63.1, 106 79.5 M106 26.5 C106 39.09, 106 51.69, 106 79.5 M106 79.5 C106 97.17, 97.17 106, 79.5 106 M106 79.5 C106 97.17, 97.17 106, 79.5 106 M79.5 106 C67.83 106, 56.16 106, 26.5 106 M79.5 106 C62.93 106, 46.36 106, 26.5 106 M26.5 106 C8.83 106, 0 97.17, 0 79.5 M26.5 106 C8.83 106, 0 97.17, 0 79.5 M0 79.5 C0 62.24, 0 44.98, 0 26.5 M0 79.5 C0 62.51, 0 45.53, 0 26.5 M0 26.5 C0 8.83, 8.83 0, 26.5 0 M0 26.5 C0 8.83, 8.83 0, 26.5 0" stroke="#1e1e1e" stroke-width="2" fill="none"></path></g><g transform="translate(440.4150390625 636.2937381440893) rotate(0 19.5849609375 12)"><text x="19.5849609375" y="0" font-family="Cascadia, Segoe UI Emoji" font-size="20px" fill="#1e1e1e" text-anchor="middle" style="white-space: pre;" direction="ltr" dominant-baseline="text-before-edge">XML</text></g><g stroke-linecap="round" transform="translate(407 800.0437381440893) rotate(0 53 53)"><path d="M0 0 C31.67 0, 63.34 0, 106 0 M0 0 C26.45 0, 52.89 0, 106 0 M106 0 C106 24.42, 106 48.83, 106 106 M106 0 C106 27.52, 106 55.04, 106 106 M106 106 C79.98 106, 53.96 106, 0 106 M106 106 C81.98 106, 57.96 106, 0 106 M0 106 C0 80.39, 0 54.79, 0 0 M0 106 C0 67.31, 0 28.62, 0 0" stroke="#1e1e1e" stroke-width="2" fill="none"></path></g><g transform="translate(424.84375 829.0437381440893) rotate(0 35.15625 24)"><text x="35.15625" y="0" font-family="Cascadia, Segoe UI Emoji" font-size="20px" fill="#1e1e1e" text-anchor="middle" style="white-space: pre;" direction="ltr" dominant-baseline="text-before-edge">JAVA</text><text x="35.15625" y="24" font-family="Cascadia, Segoe UI Emoji" font-size="20px" fill="#1e1e1e" text-anchor="middle" style="white-space: pre;" direction="ltr" dominant-baseline="text-before-edge">SERVER</text></g><g stroke-linecap="round"><g transform="translate(460.5 708.2937381440893) rotate(0 -0.5 42)"><path d="M0 0 C-0.17 14, -0.83 70, -1 84 M0 0 C-0.17 14, -0.83 70, -1 84" stroke="#1e1e1e" stroke-width="2" fill="none"></path></g><g transform="translate(460.5 708.2937381440893) rotate(0 -0.5 42)"><path d="M-9.27 60.41 C-6.78 67.51, -4.29 74.61, -1 84 M-9.27 60.41 C-6.28 68.95, -3.28 77.49, -1 84" stroke="#1e1e1e" stroke-width="2" fill="none"></path></g><g transform="translate(460.5 708.2937381440893) rotate(0 -0.5 42)"><path d="M7.83 60.61 C5.17 67.65, 2.51 74.69, -1 84 M7.83 60.61 C4.63 69.08, 1.44 77.54, -1 84" stroke="#1e1e1e" stroke-width="2" fill="none"></path></g></g><mask></mask><g stroke-linecap="round" transform="translate(16 784.2937381440893) rotate(0 157 65.5)"><path d="M0 0 C80.6 0, 161.21 0, 314 0 M0 0 C89.81 0, 179.62 0, 314 0 M314 0 C314 43.52, 314 87.04, 314 131 M314 0 C314 44.77, 314 89.55, 314 131 M314 131 C200.02 131, 86.03 131, 0 131 M314 131 C212.41 131, 110.83 131, 0 131 M0 131 C0 91.92, 0 52.84, 0 0 M0 131 C0 80, 0 29, 0 0" stroke="#1e1e1e" stroke-width="2" fill="none"></path></g><g transform="translate(21 801.7937381440893) rotate(0 150 48)"><text x="0" y="0" font-family="Cascadia, Segoe UI Emoji" font-size="16px" fill="#1e1e1e" text-anchor="start" style="white-space: pre;" direction="ltr" dominant-baseline="text-before-edge">- Handles data requests from </text><text x="0" y="19.2" font-family="Cascadia, Segoe UI Emoji" font-size="16px" fill="#1e1e1e" text-anchor="start" style="white-space: pre;" direction="ltr" dominant-baseline="text-before-edge">clients</text><text x="0" y="38.4" font-family="Cascadia, Segoe UI Emoji" font-size="16px" fill="#1e1e1e" text-anchor="start" style="white-space: pre;" direction="ltr" dominant-baseline="text-before-edge"></text><text x="0" y="57.599999999999994" font-family="Cascadia, Segoe UI Emoji" font-size="16px" fill="#1e1e1e" text-anchor="start" style="white-space: pre;" direction="ltr" dominant-baseline="text-before-edge">- Can handle multiple clients at</text><text x="0" y="76.8" font-family="Cascadia, Segoe UI Emoji" font-size="16px" fill="#1e1e1e" text-anchor="start" style="white-space: pre;" direction="ltr" dominant-baseline="text-before-edge">the same time</text></g><g stroke-linecap="round"><g transform="translate(399 850.0806734315528) rotate(0 -31 0)"><path d="M0 0 C-19.6 0, -39.19 0, -62 0 M0 0 C-22.76 0, -45.53 0, -62 0" stroke="#1e1e1e" stroke-width="2" fill="none"></path></g><g transform="translate(399 850.0806734315528) rotate(0 -31 0)"><path d="M-62 -15 C-62 -10.26, -62 -5.52, -62 0 M-62 -15 C-62 -9.49, -62 -3.99, -62 0" stroke="#1e1e1e" stroke-width="2" fill="none"></path></g><g transform="translate(399 850.0806734315528) rotate(0 -31 0)"><path d="M-62 15 C-62 10.26, -62 5.52, -62 0 M-62 15 C-62 9.49, -62 3.99, -62 0" stroke="#1e1e1e" stroke-width="2" fill="none"></path></g></g><mask></mask><g stroke-linecap="round" transform="translate(10 588.7937381440893) rotate(0 157 65.5)"><path d="M0 0 C97.81 0, 195.62 0, 314 0 M0 0 C122.78 0, 245.55 0, 314 0 M314 0 C314 49.16, 314 98.32, 314 131 M314 0 C314 32.49, 314 64.97, 314 131 M314 131 C206.52 131, 99.05 131, 0 131 M314 131 C231.98 131, 149.97 131, 0 131 M0 131 C0 101.03, 0 71.07, 0 0 M0 131 C0 91.72, 0 52.43, 0 0" stroke="#1e1e1e" stroke-width="2" fill="none"></path></g><g transform="translate(15 635.0937381440892) rotate(0 150 19.2)"><text x="0" y="0" font-family="Cascadia, Segoe UI Emoji" font-size="16px" fill="#1e1e1e" text-anchor="start" style="white-space: pre;" direction="ltr" dominant-baseline="text-before-edge">- Holds data about the streams, </text><text x="0" y="19.2" font-family="Cascadia, Segoe UI Emoji" font-size="16px" fill="#1e1e1e" text-anchor="start" style="white-space: pre;" direction="ltr" dominant-baseline="text-before-edge">groups and files of said streams</text></g><g stroke-linecap="round"><g transform="translate(394 654.5806734315528) rotate(0 -31 0)"><path d="M0 0 C-24.03 0, -48.07 0, -62 0 M0 0 C-19.63 0, -39.27 0, -62 0" stroke="#1e1e1e" stroke-width="2" fill="none"></path></g><g transform="translate(394 654.5806734315528) rotate(0 -31 0)"><path d="M-62 -15 C-62 -9.19, -62 -3.37, -62 0 M-62 -15 C-62 -10.25, -62 -5.5, -62 0" stroke="#1e1e1e" stroke-width="2" fill="none"></path></g><g transform="translate(394 654.5806734315528) rotate(0 -31 0)"><path d="M-62 15 C-62 9.19, -62 3.37, -62 0 M-62 15 C-62 10.25, -62 5.5, -62 0" stroke="#1e1e1e" stroke-width="2" fill="none"></path></g></g><mask></mask><g stroke-linecap="round" transform="translate(707.25 800.0437381440893) rotate(0 53 53)"><path d="M0 0 C40.58 0, 81.16 0, 106 0 M0 0 C26.95 0, 53.89 0, 106 0 M106 0 C106 31.29, 106 62.58, 106 106 M106 0 C106 29.12, 106 58.23, 106 106 M106 106 C66.93 106, 27.85 106, 0 106 M106 106 C67.27 106, 28.53 106, 0 106 M0 106 C0 69.2, 0 32.4, 0 0 M0 106 C0 80.08, 0 54.17, 0 0" stroke="#1e1e1e" stroke-width="2" fill="none"></path></g><g transform="translate(719.234375 817.0437381440893) rotate(0 41.015625 36)"><text x="41.015625" y="0" font-family="Cascadia, Segoe UI Emoji" font-size="20px" fill="#1e1e1e" text-anchor="middle" style="white-space: pre;" direction="ltr" dominant-baseline="text-before-edge">JAVA</text><text x="41.015625" y="24" font-family="Cascadia, Segoe UI Emoji" font-size="20px" fill="#1e1e1e" text-anchor="middle" style="white-space: pre;" direction="ltr" dominant-baseline="text-before-edge">CLIENT</text><text x="41.015625" y="48" font-family="Cascadia, Segoe UI Emoji" font-size="20px" fill="#1e1e1e" text-anchor="middle" style="white-space: pre;" direction="ltr" dominant-baseline="text-before-edge">(RELAY)</text></g><g stroke-linecap="round"><g transform="translate(521.5 851.0437381440893) rotate(0 84.625 0)"><path d="M0 0 C28.21 0, 141.04 0, 169.25 0 M0 0 C28.21 0, 141.04 0, 169.25 0" stroke="#1e1e1e" stroke-width="2" fill="none"></path></g><g transform="translate(521.5 851.0437381440893) rotate(0 84.625 0)"><path d="M145.76 8.55 C153.33 5.79, 160.9 3.04, 169.25 0 M145.76 8.55 C154.18 5.48, 162.61 2.42, 169.25 0" stroke="#1e1e1e" stroke-width="2" fill="none"></path></g><g transform="translate(521.5 851.0437381440893) rotate(0 84.625 0)"><path d="M145.76 -8.55 C153.33 -5.79, 160.9 -3.04, 169.25 0 M145.76 -8.55 C154.18 -5.48, 162.61 -2.42, 169.25 0" stroke="#1e1e1e" stroke-width="2" fill="none"></path></g></g><mask></mask><g stroke-linecap="round" transform="translate(603 968.7937381440893) rotate(0 157 65.5)"><path d="M0 0 C92.41 0, 184.83 0, 314 0 M0 0 C122.71 0, 245.43 0, 314 0 M314 0 C314 31.64, 314 63.27, 314 131 M314 0 C314 48.28, 314 96.56, 314 131 M314 131 C195.17 131, 76.35 131, 0 131 M314 131 C193.87 131, 73.74 131, 0 131 M0 131 C0 92.48, 0 53.97, 0 0 M0 131 C0 93.35, 0 55.71, 0 0" stroke="#1e1e1e" stroke-width="2" fill="none"></path></g><g transform="translate(608 976.6937381440893) rotate(0 150 57.599999999999994)"><text x="0" y="0" font-family="Cascadia, Segoe UI Emoji" font-size="16px" fill="#1e1e1e" text-anchor="start" style="white-space: pre;" direction="ltr" dominant-baseline="text-before-edge">- Logically on a different </text><text x="0" y="19.2" font-family="Cascadia, Segoe UI Emoji" font-size="16px" fill="#1e1e1e" text-anchor="start" style="white-space: pre;" direction="ltr" dominant-baseline="text-before-edge">machine from the XML server but </text><text x="0" y="38.4" font-family="Cascadia, Segoe UI Emoji" font-size="16px" fill="#1e1e1e" text-anchor="start" style="white-space: pre;" direction="ltr" dominant-baseline="text-before-edge">on the same one of the HTML page</text><text x="0" y="57.599999999999994" font-family="Cascadia, Segoe UI Emoji" font-size="16px" fill="#1e1e1e" text-anchor="start" style="white-space: pre;" direction="ltr" dominant-baseline="text-before-edge"></text><text x="0" y="76.8" font-family="Cascadia, Segoe UI Emoji" font-size="16px" fill="#1e1e1e" text-anchor="start" style="white-space: pre;" direction="ltr" dominant-baseline="text-before-edge">- Acts as a simple channel </text><text x="0" y="96" font-family="Cascadia, Segoe UI Emoji" font-size="16px" fill="#1e1e1e" text-anchor="start" style="white-space: pre;" direction="ltr" dominant-baseline="text-before-edge">between the server and the page</text></g><g stroke-linecap="round"><g transform="translate(759.3627016017219 911.5806734315528) rotate(0 0.020424415071715885 23.856532356268247)"><path d="M0 0 C0.01 14.95, 0.03 29.9, 0.04 47.71 M0 0 C0.01 15.64, 0.03 31.28, 0.04 47.71" stroke="#1e1e1e" stroke-width="2" fill="none"></path></g><g transform="translate(759.3627016017219 911.5806734315528) rotate(0 0.020424415071715885 23.856532356268247)"><path d="M-14.96 47.73 C-10.26 47.72, -5.56 47.72, 0.04 47.71 M-14.96 47.73 C-10.04 47.72, -5.13 47.72, 0.04 47.71" stroke="#1e1e1e" stroke-width="2" fill="none"></path></g><g transform="translate(759.3627016017219 911.5806734315528) rotate(0 0.020424415071715885 23.856532356268247)"><path d="M15.04 47.7 C10.34 47.7, 5.64 47.71, 0.04 47.71 M15.04 47.7 C10.12 47.7, 5.21 47.71, 0.04 47.71" stroke="#1e1e1e" stroke-width="2" fill="none"></path></g></g><mask></mask><g stroke-linecap="round" transform="translate(707.25 402.0437381440893) rotate(0 53 53)"><path d="M0 0 C35.51 0, 71.02 0, 106 0 M0 0 C41.75 0, 83.5 0, 106 0 M106 0 C106 27.5, 106 55, 106 106 M106 0 C106 31.77, 106 63.55, 106 106 M106 106 C64.94 106, 23.88 106, 0 106 M106 106 C67.46 106, 28.93 106, 0 106 M0 106 C0 63.61, 0 21.23, 0 0 M0 106 C0 68.67, 0 31.35, 0 0" stroke="#1e1e1e" stroke-width="2" fill="none"></path></g><g transform="translate(725.09375 431.0437381440893) rotate(0 35.15625 24)"><text x="35.15625" y="0" font-family="Cascadia, Segoe UI Emoji" font-size="20px" fill="#1e1e1e" text-anchor="middle" style="white-space: pre;" direction="ltr" dominant-baseline="text-before-edge">RTMP</text><text x="35.15625" y="24" font-family="Cascadia, Segoe UI Emoji" font-size="20px" fill="#1e1e1e" text-anchor="middle" style="white-space: pre;" direction="ltr" dominant-baseline="text-before-edge">SERVER</text></g><g stroke-linecap="round" transform="translate(707.25 231.29373814408928) rotate(0 53 53)"><path d="M0 0 C27.23 0, 54.47 0, 106 0 M0 0 C29.4 0, 58.8 0, 106 0 M106 0 C106 37.25, 106 74.51, 106 106 M106 0 C106 28.28, 106 56.56, 106 106 M106 106 C73.08 106, 40.15 106, 0 106 M106 106 C69.51 106, 33.03 106, 0 106 M0 106 C0 80.01, 0 54.02, 0 0 M0 106 C0 75.03, 0 44.06, 0 0" stroke="#1e1e1e" stroke-width="2" fill="none"></path></g><g transform="translate(725.09375 260.2937381440893) rotate(0 35.15625 24)"><text x="35.15625" y="0" font-family="Cascadia, Segoe UI Emoji" font-size="20px" fill="#1e1e1e" text-anchor="middle" style="white-space: pre;" direction="ltr" dominant-baseline="text-before-edge">LIVE</text><text x="35.15625" y="24" font-family="Cascadia, Segoe UI Emoji" font-size="20px" fill="#1e1e1e" text-anchor="middle" style="white-space: pre;" direction="ltr" dominant-baseline="text-before-edge">CLIENT</text></g><g stroke-linecap="round"><g transform="translate(759.75 340.2937381440893) rotate(0 0.5 29)"><path d="M0 0 C0.26 15.14, 0.52 30.27, 1 58 M0 0 C0.28 16.4, 0.57 32.8, 1 58" stroke="#1e1e1e" stroke-width="2" fill="none"></path></g><g transform="translate(759.75 340.2937381440893) rotate(0 0.5 29)"><path d="M-7.95 34.66 C-5.62 40.75, -3.28 46.84, 1 58 M-7.95 34.66 C-5.42 41.26, -2.89 47.86, 1 58" stroke="#1e1e1e" stroke-width="2" fill="none"></path></g><g transform="translate(759.75 340.2937381440893) rotate(0 0.5 29)"><path d="M9.14 34.36 C7.02 40.53, 4.89 46.7, 1 58 M9.14 34.36 C6.84 41.05, 4.54 47.73, 1 58" stroke="#1e1e1e" stroke-width="2" fill="none"></path></g></g><mask></mask><g stroke-linecap="round"><g transform="translate(692.75 281.2937381440893) rotate(0 -116.375 149.5)"><path d="M0 0 C-57.78 0, -115.56 0, -232.75 0 M-232.75 0 C-232.35 119.31, -231.95 238.62, -231.75 299" stroke="#1e1e1e" stroke-width="2.5" fill="none" stroke-dasharray="1.5 8"></path></g><g transform="translate(692.75 281.2937381440893) rotate(0 -116.375 149.5)"><path d="M0 0 L-13.59 6.34 L-13.59 -6.34 L0 0" stroke="none" stroke-width="0" fill="#1e1e1e" fill-rule="evenodd"></path><path d="M0 0 C-3.37 1.57, -6.75 3.15, -13.59 6.34 M-13.59 6.34 C-13.59 1.28, -13.59 -3.78, -13.59 -6.34 M-13.59 -6.34 C-8.21 -3.83, -2.83 -1.32, 0 0 M0 0 C0 0, 0 0, 0 0" stroke="#1e1e1e" stroke-width="2.5" fill="none"></path></g></g><mask></mask><g stroke-linecap="round"><g transform="translate(459 281.2937381440893) rotate(0 -24 0)"><path d="M0 0 C-11.08 0, -22.16 0, -48 0" stroke="#1e1e1e" stroke-width="2.5" fill="none" stroke-dasharray="1.5 8"></path></g></g><mask></mask><g transform="translate(183 250.29373814408928) rotate(0 103.125 38.400000000000006)"><text x="0" y="0" font-family="Cascadia, Segoe UI Emoji" font-size="16px" fill="#1e1e1e" text-anchor="start" style="white-space: pre;" direction="ltr" dominant-baseline="text-before-edge">XML HOLDS</text><text x="0" y="19.2" font-family="Cascadia, Segoe UI Emoji" font-size="16px" fill="#1e1e1e" text-anchor="start" style="white-space: pre;" direction="ltr" dominant-baseline="text-before-edge">STREAMER &amp; RTMP SERVER</text><text x="0" y="38.4" font-family="Cascadia, Segoe UI Emoji" font-size="16px" fill="#1e1e1e" text-anchor="start" style="white-space: pre;" direction="ltr" dominant-baseline="text-before-edge">INFO</text><text x="0" y="57.599999999999994" font-family="Cascadia, Segoe UI Emoji" font-size="16px" fill="#1e1e1e" text-anchor="start" style="white-space: pre;" direction="ltr" dominant-baseline="text-before-edge">(IP, STREAMING KEY)</text></g><g stroke-linecap="round"><g transform="translate(461 281.2937381440893) rotate(0 114.375 84.831017720934)"><path d="M0 0 C90.52 67.14, 181.05 134.28, 228.75 169.66" stroke="#1e1e1e" stroke-width="2.5" fill="none" stroke-dasharray="1.5 8"></path></g><g transform="translate(461 281.2937381440893) rotate(0 114.375 84.831017720934)"><path d="M228.75 169.66 L214.05 166.66 L221.61 156.47 L228.75 169.66" stroke="none" stroke-width="0" fill="#1e1e1e" fill-rule="evenodd"></path><path d="M228.75 169.66 C222.93 168.47, 217.12 167.28, 214.05 166.66 M214.05 166.66 C215.8 164.3, 217.55 161.94, 221.61 156.47 M221.61 156.47 C223.92 160.75, 226.24 165.03, 228.75 169.66 M228.75 169.66 C228.75 169.66, 228.75 169.66, 228.75 169.66" stroke="#1e1e1e" stroke-width="2.5" fill="none"></path></g></g><mask></mask><g stroke-linecap="round" transform="translate(1007.28125 800.0437381440893) rotate(0 53 53)"><path d="M0 0 C41.18 0, 82.37 0, 106 0 M0 0 C40.45 0, 80.91 0, 106 0 M106 0 C106 34.34, 106 68.68, 106 106 M106 0 C106 31.23, 106 62.45, 106 106 M106 106 C73.7 106, 41.39 106, 0 106 M106 106 C74.99 106, 43.98 106, 0 106 M0 106 C0 69.7, 0 33.4, 0 0 M0 106 C0 80.05, 0 54.1, 0 0" stroke="#1e1e1e" stroke-width="2" fill="none"></path></g><g transform="translate(1025.125 829.0437381440893) rotate(0 35.15625 24)"><text x="35.15625" y="0" font-family="Cascadia, Segoe UI Emoji" font-size="20px" fill="#1e1e1e" text-anchor="middle" style="white-space: pre;" direction="ltr" dominant-baseline="text-before-edge">JS</text><text x="35.15625" y="24" font-family="Cascadia, Segoe UI Emoji" font-size="20px" fill="#1e1e1e" text-anchor="middle" style="white-space: pre;" direction="ltr" dominant-baseline="text-before-edge">SCRIPT</text></g><g stroke-linecap="round"><g transform="translate(826 850.5345580367207) rotate(0 83.5 0)"><path d="M0 0 C27.83 0, 139.17 0, 167 0 M0 0 C27.83 0, 139.17 0, 167 0" stroke="#1e1e1e" stroke-width="2" fill="none"></path></g><g transform="translate(826 850.5345580367207) rotate(0 83.5 0)"><path d="M143.51 8.55 C151.93 5.48, 160.36 2.42, 167 0 M143.51 8.55 C149.67 6.31, 155.84 4.06, 167 0" stroke="#1e1e1e" stroke-width="2" fill="none"></path></g><g transform="translate(826 850.5345580367207) rotate(0 83.5 0)"><path d="M143.51 -8.55 C151.93 -5.48, 160.36 -2.42, 167 0 M143.51 -8.55 C149.67 -6.31, 155.84 -4.06, 167 0" stroke="#1e1e1e" stroke-width="2" fill="none"></path></g></g><mask></mask><g stroke-linecap="round" transform="translate(1007.28125 592.2937381440893) rotate(0 53 53)"><path d="M26.5 0 C45.56 0, 64.61 0, 79.5 0 M26.5 0 C44.67 0, 62.83 0, 79.5 0 M79.5 0 C97.17 0, 106 8.83, 106 26.5 M79.5 0 C97.17 0, 106 8.83, 106 26.5 M106 26.5 C106 44.09, 106 61.67, 106 79.5 M106 26.5 C106 37.68, 106 48.86, 106 79.5 M106 79.5 C106 97.17, 97.17 106, 79.5 106 M106 79.5 C106 97.17, 97.17 106, 79.5 106 M79.5 106 C67.03 106, 54.55 106, 26.5 106 M79.5 106 C58.6 106, 37.71 106, 26.5 106 M26.5 106 C8.83 106, 0 97.17, 0 79.5 M26.5 106 C8.83 106, 0 97.17, 0 79.5 M0 79.5 C0 66.57, 0 53.64, 0 26.5 M0 79.5 C0 67.93, 0 56.36, 0 26.5 M0 26.5 C0 8.83, 8.83 0, 26.5 0 M0 26.5 C0 8.83, 8.83 0, 26.5 0" stroke="#1e1e1e" stroke-width="2" fill="none"></path></g><g transform="translate(1036.84375 621.2937381440893) rotate(0 23.4375 24)"><text x="23.4375" y="0" font-family="Cascadia, Segoe UI Emoji" font-size="20px" fill="#1e1e1e" text-anchor="middle" style="white-space: pre;" direction="ltr" dominant-baseline="text-before-edge">HTML</text><text x="23.4375" y="24" font-family="Cascadia, Segoe UI Emoji" font-size="20px" fill="#1e1e1e" text-anchor="middle" style="white-space: pre;" direction="ltr" dominant-baseline="text-before-edge">PAGE</text></g><g stroke-linecap="round"><g transform="translate(1059.735370512748 785.2937381440893) rotate(0 -0.00003662631525003235 -35.99999999999999)"><path d="M0 0 C0 -12, 0 -60, 0 -72 M0 0 C0 -12, 0 -60, 0 -72" stroke="#1e1e1e" stroke-width="2" fill="none"></path></g><g transform="translate(1059.735370512748 785.2937381440893) rotate(0 -0.00003662631525003235 -35.99999999999999)"><path d="M8.55 -48.51 C6.54 -54.04, 4.52 -59.58, 0 -72 M8.55 -48.51 C5.5 -56.88, 2.46 -65.25, 0 -72" stroke="#1e1e1e" stroke-width="2" fill="none"></path></g><g transform="translate(1059.735370512748 785.2937381440893) rotate(0 -0.00003662631525003235 -35.99999999999999)"><path d="M-8.55 -48.51 C-6.54 -54.04, -4.52 -59.58, 0 -72 M-8.55 -48.51 C-5.5 -56.88, -2.46 -65.25, 0 -72" stroke="#1e1e1e" stroke-width="2" fill="none"></path></g></g><mask></mask><g stroke-linecap="round" transform="translate(1007.28125 402.0437381440893) rotate(0 53 53)"><path d="M26.5 0 C41.6 0, 56.71 0, 79.5 0 M79.5 0 C97.17 0, 106 8.83, 106 26.5 M106 26.5 C106 43.08, 106 59.67, 106 79.5 M106 79.5 C106 97.17, 97.17 106, 79.5 106 M79.5 106 C67.41 106, 55.33 106, 26.5 106 M26.5 106 C8.83 106, 0 97.17, 0 79.5 M0 79.5 C0 63.97, 0 48.45, 0 26.5 M0 26.5 C0 8.83, 8.83 0, 26.5 0" stroke="#1e1e1e" stroke-width="2.5" fill="none" stroke-dasharray="8 10"></path></g><g transform="translate(1025.125 431.0437381440893) rotate(0 35.15625 24)"><text x="35.15625" y="0" font-family="Cascadia, Segoe UI Emoji" font-size="20px" fill="#1e1e1e" text-anchor="middle" style="white-space: pre;" direction="ltr" dominant-baseline="text-before-edge">VIDEO </text><text x="35.15625" y="24" font-family="Cascadia, Segoe UI Emoji" font-size="20px" fill="#1e1e1e" text-anchor="middle" style="white-space: pre;" direction="ltr" dominant-baseline="text-before-edge">STREAM</text></g><g stroke-linecap="round"><g transform="translate(1059.3639093427676 579.7937381440893) rotate(0 0.08409033849568459 -28.374999999999993)"><path d="M0 0 C0.03 -9.46, 0.14 -47.29, 0.17 -56.75 M0 0 C0.03 -9.46, 0.14 -47.29, 0.17 -56.75" stroke="#1e1e1e" stroke-width="2" fill="none"></path></g><g transform="translate(1059.3639093427676 579.7937381440893) rotate(0 0.08409033849568459 -28.374999999999993)"><path d="M-8.48 -23.52 C-6.36 -17.63, -4.23 -11.74, 0 0 M-8.48 -23.52 C-5.83 -16.16, -3.17 -8.8, 0 0" stroke="#1e1e1e" stroke-width="2" fill="none"></path></g><g transform="translate(1059.3639093427676 579.7937381440893) rotate(0 0.08409033849568459 -28.374999999999993)"><path d="M8.62 -23.47 C6.46 -17.59, 4.3 -11.71, 0 0 M8.62 -23.47 C5.92 -16.12, 3.23 -8.78, 0 0" stroke="#1e1e1e" stroke-width="2" fill="none"></path></g></g><mask></mask><g stroke-linecap="round"><g transform="translate(827 451.2937381440893) rotate(0 82.5 0)"><path d="M0 0 C27.5 0, 137.5 0, 165 0 M0 0 C27.5 0, 137.5 0, 165 0" stroke="#1e1e1e" stroke-width="2" fill="none"></path></g><g transform="translate(827 451.2937381440893) rotate(0 82.5 0)"><path d="M141.51 8.55 C147.96 6.2, 154.41 3.86, 165 0 M141.51 8.55 C150.12 5.42, 158.74 2.28, 165 0" stroke="#1e1e1e" stroke-width="2" fill="none"></path></g><g transform="translate(827 451.2937381440893) rotate(0 82.5 0)"><path d="M141.51 -8.55 C147.96 -6.2, 154.41 -3.86, 165 0 M141.51 -8.55 C150.12 -5.42, 158.74 -2.28, 165 0" stroke="#1e1e1e" stroke-width="2" fill="none"></path></g></g><mask></mask><g stroke-linecap="round"><g transform="translate(996.625 790.4627204231552) rotate(0 -119.125 -134.168982279066)"><path d="M0 0 C-68.26 -47.73, -136.52 -95.47, -237.63 -166.17 M-237.63 -166.17 C-237.8 -195.5, -237.98 -224.82, -238.25 -268.34" stroke="#1e1e1e" stroke-width="2.5" fill="none" stroke-dasharray="1.5 8"></path></g><g transform="translate(996.625 790.4627204231552) rotate(0 -119.125 -134.168982279066)"><path d="M-238.25 -268.34 L-231.83 -254.78 L-244.51 -254.7 L-238.25 -268.34" stroke="none" stroke-width="0" fill="#1e1e1e" fill-rule="evenodd"></path><path d="M-238.25 -268.34 C-236.41 -264.44, -234.56 -260.55, -231.83 -254.78 M-231.83 -254.78 C-235.47 -254.76, -239.11 -254.74, -244.51 -254.7 M-244.51 -254.7 C-242.17 -259.8, -239.83 -264.89, -238.25 -268.34 M-238.25 -268.34 C-238.25 -268.34, -238.25 -268.34, -238.25 -268.34" stroke="#1e1e1e" stroke-width="2.5" fill="none"></path></g></g><mask></mask><g stroke-linecap="round"><g transform="translate(862 696.8937381440893) rotate(0 -24 0)"><path d="M0 0 C-11.42 0, -22.84 0, -48 0" stroke="#1e1e1e" stroke-width="2.5" fill="none" stroke-dasharray="1.5 8"></path></g></g><mask></mask><g transform="translate(679 687.8937381440893) rotate(0 60.9375 9.600000000000001)"><text x="0" y="0" font-family="Cascadia, Segoe UI Emoji" font-size="16px" fill="#1e1e1e" text-anchor="start" style="white-space: pre;" direction="ltr" dominant-baseline="text-before-edge">GETS INFO FOR</text></g><g stroke-linecap="round" transform="translate(1271 788.4002705003576) rotate(0 157 65.5)"><path d="M0 0 C69.34 0, 138.68 0, 314 0 M0 0 C112.37 0, 224.74 0, 314 0 M314 0 C314 52.2, 314 104.4, 314 131 M314 0 C314 51.28, 314 102.56, 314 131 M314 131 C219.09 131, 124.17 131, 0 131 M314 131 C245.5 131, 176.99 131, 0 131 M0 131 C0 100.77, 0 70.53, 0 0 M0 131 C0 97.85, 0 64.69, 0 0" stroke="#1e1e1e" stroke-width="2" fill="none"></path></g><g transform="translate(1276 796.3002705003576) rotate(0 145.3125 57.60000000000001)"><text x="0" y="0" font-family="Cascadia, Segoe UI Emoji" font-size="16px" fill="#1e1e1e" text-anchor="start" style="white-space: pre;" direction="ltr" dominant-baseline="text-before-edge">- Requests info from the server</text><text x="0" y="19.2" font-family="Cascadia, Segoe UI Emoji" font-size="16px" fill="#1e1e1e" text-anchor="start" style="white-space: pre;" direction="ltr" dominant-baseline="text-before-edge">about the streamers</text><text x="0" y="38.4" font-family="Cascadia, Segoe UI Emoji" font-size="16px" fill="#1e1e1e" text-anchor="start" style="white-space: pre;" direction="ltr" dominant-baseline="text-before-edge"></text><text x="0" y="57.599999999999994" font-family="Cascadia, Segoe UI Emoji" font-size="16px" fill="#1e1e1e" text-anchor="start" style="white-space: pre;" direction="ltr" dominant-baseline="text-before-edge">- After knowing the streamer </text><text x="0" y="76.8" font-family="Cascadia, Segoe UI Emoji" font-size="16px" fill="#1e1e1e" text-anchor="start" style="white-space: pre;" direction="ltr" dominant-baseline="text-before-edge">info sets up the HTML page for </text><text x="0" y="96" font-family="Cascadia, Segoe UI Emoji" font-size="16px" fill="#1e1e1e" text-anchor="start" style="white-space: pre;" direction="ltr" dominant-baseline="text-before-edge">the live streaming</text></g><g stroke-linecap="round"><g transform="translate(1122.362701601722 851.9877467885364) rotate(0 67.31864919913903 0)"><path d="M0 0 C32.33 0, 64.67 0, 134.64 0 M0 0 C29.59 0, 59.18 0, 134.64 0" stroke="#1e1e1e" stroke-width="2" fill="none"></path></g><g transform="translate(1122.362701601722 851.9877467885364) rotate(0 67.31864919913903 0)"><path d="M134.64 15 C134.64 11.4, 134.64 7.8, 134.64 0 M134.64 15 C134.64 11.7, 134.64 8.41, 134.64 0" stroke="#1e1e1e" stroke-width="2" fill="none"></path></g><g transform="translate(1122.362701601722 851.9877467885364) rotate(0 67.31864919913903 0)"><path d="M134.64 -15 C134.64 -11.4, 134.64 -7.8, 134.64 0 M134.64 -15 C134.64 -11.7, 134.64 -8.41, 134.64 0" stroke="#1e1e1e" stroke-width="2" fill="none"></path></g></g><mask></mask><g stroke-linecap="round" transform="translate(1275.318649199139 585.7937381440893) rotate(0 157 65.5)"><path d="M0 0 C88.15 0, 176.3 0, 314 0 M0 0 C81.49 0, 162.98 0, 314 0 M314 0 C314 39.91, 314 79.83, 314 131 M314 0 C314 35.84, 314 71.68, 314 131 M314 131 C219.28 131, 124.55 131, 0 131 M314 131 C199.87 131, 85.74 131, 0 131 M0 131 C0 83.49, 0 35.99, 0 0 M0 131 C0 101.69, 0 72.37, 0 0" stroke="#1e1e1e" stroke-width="2" fill="none"></path></g><g transform="translate(1280.318649199139 641.6937381440893) rotate(0 107.8125 9.599999999999998)"><text x="0" y="0" font-family="Cascadia, Segoe UI Emoji" font-size="16px" fill="#1e1e1e" text-anchor="start" style="white-space: pre;" direction="ltr" dominant-baseline="text-before-edge">- Final GUI of the user</text></g><g stroke-linecap="round"><g transform="translate(1126.6813508008606 649.381214432268) rotate(0 67.31864919913903 0)"><path d="M0 0 C37.49 0, 74.98 0, 134.64 0 M0 0 C50.83 0, 101.65 0, 134.64 0" stroke="#1e1e1e" stroke-width="2" fill="none"></path></g><g transform="translate(1126.6813508008606 649.381214432268) rotate(0 67.31864919913903 0)"><path d="M134.64 15 C134.64 10.82, 134.64 6.65, 134.64 0 M134.64 15 C134.64 9.34, 134.64 3.67, 134.64 0" stroke="#1e1e1e" stroke-width="2" fill="none"></path></g><g transform="translate(1126.6813508008606 649.381214432268) rotate(0 67.31864919913903 0)"><path d="M134.64 -15 C134.64 -10.82, 134.64 -6.65, 134.64 0 M134.64 -15 C134.64 -9.34, 134.64 -3.67, 134.64 0" stroke="#1e1e1e" stroke-width="2" fill="none"></path></g></g><mask></mask><g stroke-linecap="round" transform="translate(604.3186491991389 10.793738144089275) rotate(0 157 65.5)"><path d="M0 0 C115.16 0, 230.32 0, 314 0 M0 0 C102.49 0, 204.97 0, 314 0 M314 0 C314 26.85, 314 53.7, 314 131 M314 0 C314 30.44, 314 60.87, 314 131 M314 131 C236.42 131, 158.85 131, 0 131 M314 131 C191.67 131, 69.35 131, 0 131 M0 131 C0 93.45, 0 55.9, 0 0 M0 131 C0 97.93, 0 64.85, 0 0" stroke="#1e1e1e" stroke-width="2" fill="none"></path></g><g transform="translate(609.3186491991389 66.69373814408925) rotate(0 126.5625 9.600000000000023)"><text x="0" y="0" font-family="Cascadia, Segoe UI Emoji" font-size="16px" fill="#1e1e1e" text-anchor="start" style="white-space: pre;" direction="ltr" dominant-baseline="text-before-edge">- Offers the live streaming</text></g><g stroke-linecap="round"><g transform="translate(761.3783230315548 217.38121443226805) rotate(0 0 -30.54373814408939)"><path d="M0 0 C0 -15.7, 0 -31.4, 0 -61.09 M0 0 C0 -24.38, 0 -48.77, 0 -61.09" stroke="#1e1e1e" stroke-width="2" fill="none"></path></g><g transform="translate(761.3783230315548 217.38121443226805) rotate(0 0 -30.54373814408939)"><path d="M15 -61.09 C11.14 -61.09, 7.29 -61.09, 0 -61.09 M15 -61.09 C9.01 -61.09, 3.03 -61.09, 0 -61.09" stroke="#1e1e1e" stroke-width="2" fill="none"></path></g><g transform="translate(761.3783230315548 217.38121443226805) rotate(0 0 -30.54373814408939)"><path d="M-15 -61.09 C-11.14 -61.09, -7.29 -61.09, 0 -61.09 M-15 -61.09 C-9.01 -61.09, -3.03 -61.09, 0 -61.09" stroke="#1e1e1e" stroke-width="2" fill="none"></path></g></g><mask></mask><g stroke-linecap="round" transform="translate(956.0000000000002 10) rotate(0 157 65.5)"><path d="M0 0 C93.93 0, 187.87 0, 314 0 M0 0 C100.7 0, 201.39 0, 314 0 M314 0 C314 28.42, 314 56.84, 314 131 M314 0 C314 45.51, 314 91.03, 314 131 M314 131 C204.98 131, 95.96 131, 0 131 M314 131 C232.38 131, 150.77 131, 0 131 M0 131 C0 104.17, 0 77.34, 0 0 M0 131 C0 88.95, 0 46.9, 0 0" stroke="#1e1e1e" stroke-width="2" fill="none"></path></g><g transform="translate(961.0000000000002 27.5) rotate(0 150 48)"><text x="0" y="0" font-family="Cascadia, Segoe UI Emoji" font-size="16px" fill="#1e1e1e" text-anchor="start" style="white-space: pre;" direction="ltr" dominant-baseline="text-before-edge">- Holds multiple live streamings</text><text x="0" y="19.2" font-family="Cascadia, Segoe UI Emoji" font-size="16px" fill="#1e1e1e" text-anchor="start" style="white-space: pre;" direction="ltr" dominant-baseline="text-before-edge"></text><text x="0" y="38.4" font-family="Cascadia, Segoe UI Emoji" font-size="16px" fill="#1e1e1e" text-anchor="start" style="white-space: pre;" direction="ltr" dominant-baseline="text-before-edge">- Converts RTMP protocol </text><text x="0" y="57.599999999999994" font-family="Cascadia, Segoe UI Emoji" font-size="16px" fill="#1e1e1e" text-anchor="start" style="white-space: pre;" direction="ltr" dominant-baseline="text-before-edge">streaming to HLS stream</text><text x="0" y="76.8" font-family="Cascadia, Segoe UI Emoji" font-size="16px" fill="#1e1e1e" text-anchor="start" style="white-space: pre;" direction="ltr" dominant-baseline="text-before-edge">( Visible of HTTP )</text></g><g stroke-linecap="round"><g transform="translate(822.4422802637494 395.23406431167336) rotate(0 144.8569914058877 -120.36703215583674)"><path d="M0 0 C63.98 -40.37, 127.96 -80.75, 289.69 -182.8 M0 0 C66.34 -41.86, 132.67 -83.72, 289.69 -182.8 M289.69 -182.8 C289.69 -194.81, 289.7 -206.82, 289.71 -240.73 M289.69 -182.8 C289.69 -198.55, 289.7 -214.3, 289.71 -240.73" stroke="#1e1e1e" stroke-width="2" fill="none"></path></g><g transform="translate(822.4422802637494 395.23406431167336) rotate(0 144.8569914058877 -120.36703215583674)"><path d="M304.71 -240.73 C301.4 -240.73, 298.09 -240.73, 289.71 -240.73 M304.71 -240.73 C301.28 -240.73, 297.84 -240.73, 289.71 -240.73" stroke="#1e1e1e" stroke-width="2" fill="none"></path></g><g transform="translate(822.4422802637494 395.23406431167336) rotate(0 144.8569914058877 -120.36703215583674)"><path d="M274.71 -240.74 C278.03 -240.74, 281.34 -240.74, 289.71 -240.73 M274.71 -240.74 C278.15 -240.74, 281.58 -240.74, 289.71 -240.73" stroke="#1e1e1e" stroke-width="2" fill="none"></path></g></g><mask></mask></svg>